<svg width="75" height="76" viewBox="0 0 75 76" fill="none" xmlns="http://www.w3.org/2000/svg">
<path d="M69.6189 22.1393C67.8402 18.209 65.287 14.6803 62.0452 11.6393C58.8034 8.62705 55.0452 6.2459 50.8566 4.58197C46.5247 2.86066 41.9345 2 37.2009 2C32.4673 2 27.8771 2.86066 23.5451 4.58197C19.3566 6.2459 15.5984 8.59836 12.3566 11.6393C9.11478 14.6803 6.56153 18.209 4.78284 22.1393C2.94678 26.2131 2 30.5738 2 35.0492C2 42.8811 4.9262 50.3975 10.291 56.3648L7.4221 72L22.6845 65.2008C27.2459 67.1516 32.0943 68.127 37.1722 68.127C41.9058 68.127 46.496 67.2664 50.8279 65.5451C55.0164 63.8811 58.7746 61.5287 62.0164 58.4877C65.2582 55.4467 67.8115 51.918 69.5902 47.9877C71.4263 43.9139 72.373 39.5533 72.373 35.0779C72.4017 30.5738 71.455 26.2418 69.6189 22.1393Z" stroke="#FF8402" stroke-width="4"/>
<path d="M51.4878 41.6474C49.996 40.9015 48.9059 40.4425 48.1314 40.1556C47.6437 39.9835 46.4961 39.4671 46.0944 39.7827C44.8321 40.8155 43.4838 43.7417 42.0493 44.2868C38.492 43.5982 35.1928 41.1597 32.6108 38.6638C31.4633 37.5737 29.3403 34.4753 28.8813 33.6433C28.7953 32.7827 30.3444 31.6351 30.6886 30.9753C32.4673 28.9671 31.119 27.7048 30.8895 26.8728C30.4879 26.0122 29.7994 24.463 29.1969 23.2007C28.6805 22.3687 28.5657 21.1351 27.6476 20.6761C23.746 18.6679 21.5084 22.6843 20.5904 24.7786C15.0535 38.1187 48.3321 63.5081 55.1026 46.0081C55.4469 44.4876 55.3034 43.9138 54.787 43.2253C53.7542 42.5081 52.5493 42.1925 51.4878 41.6474Z" stroke="#FF8402" stroke-width="4"/>
</svg>
